<mxfile host="65bd71144e">
    <diagram id="xDE_8QIXLQb7VupucfFG" name="第 1 页">
        <mxGraphModel dx="682" dy="1670" grid="1" gridSize="10" guides="1" tooltips="1" connect="1" arrows="1" fold="1" page="1" pageScale="1" pageWidth="827" pageHeight="1169" math="0" shadow="0">
            <root>
                <mxCell id="0"/>
                <mxCell id="1" parent="0"/>
                <mxCell id="2" value="dio 基础类&lt;br&gt;&lt;br&gt;download&lt;br&gt;&lt;br&gt;request&lt;br&gt;&lt;br&gt;upload&lt;br&gt;&lt;br&gt;拦截器注册&lt;br&gt;dio配置初始化" style="rounded=0;whiteSpace=wrap;html=1;" vertex="1" parent="1">
                    <mxGeometry x="100" y="-30" width="210" height="310" as="geometry"/>
                </mxCell>
            </root>
        </mxGraphModel>
    </diagram>
</mxfile>
